<?xml version="1.0" encoding="UTF-8"?>
<svg width="128px" height="119px" viewBox="0 0 128 119" version="1.1" xmlns="http://www.w3.org/2000/svg" xmlns:xlink="http://www.w3.org/1999/xlink">
    <!-- Generator: Sketch 52.4 (67378) - http://www.bohemiancoding.com/sketch -->
    <title>first-aid-kit</title>
    <desc>Created with Sketch.</desc>
    <g id="Page-1" stroke="none" stroke-width="1" fill="none" fill-rule="evenodd">
        <g id="50-Hospital-Element-Icons" transform="translate(-488.000000, -793.000000)" fill="#FFFFFF" fill-rule="nonzero">
            <path d="M547.25,879.942418 L547.25,867.416102 L534.75,867.416102 C531.988281,867.416102 529.75,865.173109 529.75,862.405576 C529.75,859.638043 531.988281,857.395049 534.75,857.395049 L547.25,857.395049 L547.25,844.868733 C547.25,842.101201 549.488281,839.858207 552.25,839.858207 C555.011719,839.858207 557.25,842.101201 557.25,844.868733 L557.25,857.395049 L569.75,857.395049 C572.511719,857.395049 574.75,859.638043 574.75,862.405576 C574.75,865.173109 572.511719,867.416102 569.75,867.416102 L557.25,867.416102 L557.25,879.942418 C557.25,882.709951 555.011719,884.952944 552.25,884.952944 C549.488281,884.952944 547.25,882.708972 547.25,879.942418 Z M606,857.395049 L606,833.344523 C606,827.818265 601.513672,823.32347 596,823.32347 L508,823.32347 C502.486328,823.32347 498,827.818265 498,833.344523 L498,857.395049 L514.75,857.395049 C517.511719,857.395049 519.75,859.638043 519.75,862.405576 C519.75,865.173109 517.511719,867.416102 514.75,867.416102 L498,867.416102 L498,891.717154 C498,897.242434 502.486328,901.738207 508,901.738207 L596,901.738207 C601.513672,901.738207 606,897.242434 606,891.717154 L606,887.458207 C606,884.690674 608.238281,882.447681 611,882.447681 C613.761719,882.447681 616,884.690674 616,887.458207 L616,891.717154 C616,902.767714 607.02832,911.75926 596,911.75926 L508,911.75926 C496.97168,911.75926 488,902.767714 488,891.717154 L488,833.344523 C488,822.292985 496.97168,813.302418 508,813.302418 L529.518555,813.302418 L529.518555,806.77014 C529.518555,799.177039 535.682617,793 543.258789,793 L560.741211,793 C568.317383,793 574.481445,799.177039 574.481445,806.77014 L574.481445,813.301439 L596,813.301439 C607.02832,813.301439 616,822.292985 616,833.343544 L616,862.404597 C616,865.17213 613.761719,867.415123 611,867.415123 C610.657226,867.415123 610.323242,867.380872 610,867.315304 C609.676758,867.380872 609.342774,867.415123 609,867.415123 L589.75,867.415123 C586.988281,867.415123 584.75,865.17213 584.75,862.404597 C584.75,859.638043 586.988281,857.394071 589.75,857.394071 L606,857.394071 L606,857.395049 Z M539.518555,813.302418 L564.481445,813.302418 L564.481445,806.77014 C564.481445,804.703298 562.803711,803.021053 560.741211,803.021053 L543.258789,803.021053 C541.196289,803.021053 539.518555,804.702319 539.518555,806.77014 L539.518555,813.302418 Z" id="first-aid-kit"></path>
        </g>
    </g>
</svg>