<?xml version="1.0" encoding="utf-8"?>
<!-- Generator: Adobe Illustrator 22.1.0, SVG Export Plug-In . SVG Version: 6.00 Build 0)  -->
<svg version="1.1" id="Layer_1" xmlns="http://www.w3.org/2000/svg" xmlns:xlink="http://www.w3.org/1999/xlink" x="0px" y="0px"
	 viewBox="0 0 38 38" style="enable-background:new 0 0 38 38;" xml:space="preserve">
<style type="text/css">
	.st0{fill:#7F76D1;}
</style>
<title>menu-hamburger-fat</title>
<path class="st0" d="M3.7,6.5h30.6c1.3,0.1,2.3,1.2,2.2,2.5c-0.1,1.2-1,2.2-2.2,2.2H3.7C2.4,11.2,1.4,10,1.5,8.7
	C1.5,7.5,2.5,6.6,3.7,6.5z"/>
<path class="st0" d="M3.7,16.6h30.6c1.3,0,2.4,1.1,2.4,2.4s-1.1,2.4-2.4,2.4c0,0,0,0,0,0H3.7c-1.3,0-2.4-1.1-2.4-2.4
	C1.3,17.7,2.4,16.6,3.7,16.6z"/>
<path class="st0" d="M3.7,26.7h30.6c1.3,0.1,2.3,1.2,2.2,2.5c-0.1,1.2-1,2.2-2.2,2.2H3.7c-1.3-0.1-2.3-1.2-2.2-2.5
	C1.5,27.8,2.5,26.8,3.7,26.7z"/>
</svg>
