<?xml version="1.0" encoding="UTF-8"?>
<svg width="103px" height="128px" viewBox="0 0 103 128" version="1.1" xmlns="http://www.w3.org/2000/svg" xmlns:xlink="http://www.w3.org/1999/xlink">
    <!-- Generator: Sketch 52.5 (67469) - http://www.bohemiancoding.com/sketch -->
    <title>Path</title>
    <desc>Created with Sketch.</desc>
    <g id="Page-1" stroke="none" stroke-width="1" fill="none" fill-rule="evenodd">
        <g id="50-Hospital-Element-Icons" fill="#FFFFFF" fill-rule="nonzero">
            <path d="M82.9014578,51.25 C82.9014578,54.3085938 82.4578983,57.3320313 81.5815741,60.2382813 C80.7847369,62.8828125 77.9830507,64.3828125 75.3266006,63.5908203 C72.6681879,62.7978515 71.1598894,60.0107423 71.9567265,57.3652345 C72.5514101,55.392578 72.8526773,53.334961 72.8526773,51.25 C72.8526773,39.533203 63.2739521,30 51.4990187,30 C39.7250666,30 30.1453602,39.533203 30.1453602,51.25 C30.1453602,62.966797 39.7250666,72.5 51.4990187,72.5 C53.4930736,72.5 55.4655392,72.227539 57.3594989,71.6914063 C60.0306688,70.9335938 62.8088034,72.4746095 63.5683497,75.1308595 C64.3278963,77.7861328 62.780345,80.5527345 60.1121189,81.3085938 C57.3222084,82.0986328 54.4243521,82.5 51.4990187,82.5 C34.1835174,82.5 20.0965797,68.4814453 20.0965797,51.25 C20.0965797,34.0185548 34.1835174,20 51.4990187,20 C68.8145198,20 82.9014578,34.0185548 82.9014578,51.25 Z M102.998037,51.189453 C102.988224,61.1640625 100.208127,70.5126953 94.4968084,79.779297 C89.5519055,87.803711 83.1271627,94.805664 76.3255906,102.217774 C69.6564978,109.485352 62.7607184,117.000977 57.2535157,125.670899 C56.3330316,127.121094 54.7295447,128 53.0063358,128 L49.9917017,128 C48.2684928,128 46.6659869,127.121094 45.7445218,125.671875 C40.237319,117.000977 33.3415396,109.485352 26.6724466,102.217774 C19.8708746,94.805664 13.4471132,87.8046875 8.5012291,79.779297 C2.79089177,70.5126952 0.0098132622,61.1640625 0,51.201172 C0.0157012195,37.513672 5.37963021,24.658203 15.1035919,14.991211 C24.8275534,5.32421875 37.7535823,0 51.4990187,0 C65.2444552,0 78.1704839,5.32421875 87.8954268,14.991211 C97.618407,24.6572265 102.983318,37.5126953 102.998037,51.189453 Z M92.949257,51.1904298 C92.9237424,28.4833985 74.3285919,10 51.4990187,10 C28.6694456,10 10.0752764,28.4833985 10.0487805,51.201172 C10.0664442,69.290039 21.2005716,81.4248048 34.0932356,95.4746095 C40.0233898,101.9375 46.1242948,108.586914 51.4990187,116.234375 C56.8737424,108.586914 62.9756289,101.936524 68.9048018,95.4746095 C81.7974656,81.423828 92.9325743,69.290039 92.949257,51.1904298 Z M61.5477992,46.25 L56.523409,46.25 L56.523409,41.25 C56.523409,38.4882813 54.2742093,36.25 51.4990187,36.25 C48.7238282,36.25 46.4746285,38.4882813 46.4746285,41.25 L46.4746285,46.25 L41.4502382,46.25 C38.6750477,46.25 36.425848,48.4882813 36.425848,51.25 C36.425848,54.0117188 38.6750477,56.25 41.4502382,56.25 L46.4746285,56.25 L46.4746285,61.25 C46.4746285,64.0117188 48.7238282,66.25 51.4990187,66.25 C54.2742093,66.25 56.523409,64.0117188 56.523409,61.25 L56.523409,56.25 L61.5477992,56.25 C64.3229898,56.25 66.5721895,54.0117188 66.5721895,51.25 C66.5721895,48.4882813 64.3229898,46.25 61.5477992,46.25 Z" id="pin"></path>
        </g>
    </g>
</svg>