<svg width="103px" height="128px" viewBox="0 0 103 128" xmlns="http://www.w3.org/2000/svg" >
    <title>Location Pin</title>
    <g id="icon-pin" stroke="none" stroke-width="1" fill="none" fill-rule="evenodd">
        <g id="50-Hospital-Element-Icons" transform="translate(-1397.000000, -1684.000000)" stroke="#FFFFFF" stroke-width="1" fill-rule="nonzero">
            <path stroke-dasharray="300" style="stroke-dashoffset: 1000px"  d="M1479.90146,1735.25 C1479.90146,1738.30859 1479.4579,1741.33203 1478.58157,1744.23828 C1477.78474,1746.88281 1474.98305,1748.38281 1472.3266,1747.59082 C1469.66819,1746.79785 1468.15989,1744.01074 1468.95673,1741.36523 C1469.55141,1739.39258 1469.85268,1737.33496 1469.85268,1735.25 C1469.85268,1723.5332 1460.27395,1714 1448.49902,1714 C1436.72507,1714 1427.14536,1723.5332 1427.14536,1735.25 C1427.14536,1746.9668 1436.72507,1756.5 1448.49902,1756.5 C1450.49307,1756.5 1452.46554,1756.22754 1454.3595,1755.69141 C1457.03067,1754.93359 1459.8088,1756.47461 1460.56835,1759.13086 C1461.3279,1761.78613 1459.78034,1764.55273 1457.11212,1765.30859 C1454.32221,1766.09863 1451.42435,1766.5 1448.49902,1766.5 C1431.18352,1766.5 1417.09658,1752.48145 1417.09658,1735.25 C1417.09658,1718.01855 1431.18352,1704 1448.49902,1704 C1465.81452,1704 1479.90146,1718.01855 1479.90146,1735.25 Z M1499.99804,1735.18945 C1499.98822,1745.16406 1497.20813,1754.5127 1491.49681,1763.7793 C1486.55191,1771.80371 1480.12716,1778.80566 1473.32559,1786.21777 C1466.6565,1793.48535 1459.76072,1801.00098 1454.25352,1809.6709 C1453.33303,1811.12109 1451.72954,1812 1450.00634,1812 L1446.9917,1812 C1445.26849,1812 1443.66599,1811.12109 1442.74452,1809.67188 C1437.23732,1801.00098 1430.34154,1793.48535 1423.67245,1786.21777 C1416.87087,1778.80566 1410.44711,1771.80469 1405.50123,1763.7793 C1399.79089,1754.5127 1397.00981,1745.16406 1397,1735.20117 C1397.0157,1721.51367 1402.37963,1708.6582 1412.10359,1698.99121 C1421.82755,1689.32422 1434.75358,1684 1448.49902,1684 C1462.24446,1684 1475.17048,1689.32422 1484.89543,1698.99121 C1494.61841,1708.65723 1499.98332,1721.5127 1499.99804,1735.18945 Z M1489.94926,1735.19043 C1489.92374,1712.4834 1471.32859,1694 1448.49902,1694 C1425.66945,1694 1407.07528,1712.4834 1407.04878,1735.20117 C1407.06644,1753.29004 1418.20057,1765.4248 1431.09324,1779.47461 C1437.02339,1785.9375 1443.12429,1792.58691 1448.49902,1800.23438 C1453.87374,1792.58691 1459.97563,1785.93652 1465.9048,1779.47461 C1478.79747,1765.42383 1489.93257,1753.29004 1489.94926,1735.19043 Z M1458.5478,1730.25 L1453.52341,1730.25 L1453.52341,1725.25 C1453.52341,1722.48828 1451.27421,1720.25 1448.49902,1720.25 C1445.72383,1720.25 1443.47463,1722.48828 1443.47463,1725.25 L1443.47463,1730.25 L1438.45024,1730.25 C1435.67505,1730.25 1433.42585,1732.48828 1433.42585,1735.25 C1433.42585,1738.01172 1435.67505,1740.25 1438.45024,1740.25 L1443.47463,1740.25 L1443.47463,1745.25 C1443.47463,1748.01172 1445.72383,1750.25 1448.49902,1750.25 C1451.27421,1750.25 1453.52341,1748.01172 1453.52341,1745.25 L1453.52341,1740.25 L1458.5478,1740.25 C1461.32299,1740.25 1463.57219,1738.01172 1463.57219,1735.25 C1463.57219,1732.48828 1461.32299,1730.25 1458.5478,1730.25 Z" id="pin"></path>
        </g>
    </g>
</svg>