<svg id="pin" xmlns="http://www.w3.org/2000/svg" width="103" height="128" viewBox="0 0 103 128">
  <defs>
    <style>
      .cls-1 {
        fill: #fff;
      }

      .cls-2 {
        fill: none;
      }
    </style>
  </defs>
  <title>pin5-eO</title>
  <path id="circle" class="cls-1" d="M82.9,51.25a31,31,0,0,1-1.32,9A5,5,0,0,1,72,57.37a21.35,21.35,0,1,0-14.6,14.32,5,5,0,1,1,2.75,9.62A31.24,31.24,0,1,1,82.9,51.25Z"/>
  <path id="outerPin" class="cls-1" d="M103,51.19c0,10-2.79,19.32-8.5,28.59-5,8-11.37,15-18.17,22.44S62.76,117,57.25,125.67A5,5,0,0,1,53,128H50a5.05,5.05,0,0,1-4.25-2.33c-5.5-8.67-12.4-16.18-19.07-23.45S13.45,87.8,8.5,79.78C2.79,70.51,0,61.16,0,51.2A51.37,51.37,0,0,1,51.5,0,51.37,51.37,0,0,1,103,51.19Z"/>
  <path id="innerPin" class="cls-2" d="M93,51.19a41.45,41.45,0,0,0-82.9,0c0,18.09,11.15,30.22,24,44.27,5.93,6.47,12,13.12,17.41,20.76,5.37-7.64,11.48-14.29,17.4-20.76C81.8,81.42,92.93,69.29,93,51.19Z"/>
  <path id="plus" class="cls-1" d="M61.55,46.25h-5v-5a5,5,0,0,0-10.05,0v5h-5a5,5,0,1,0,0,10h5v5a5,5,0,0,0,10.05,0v-5h5a5,5,0,1,0,0-10Z"/>
</svg>
