<svg width="128px" height="110px" viewBox="0 0 128 110" version="1.1" xmlns="http://www.w3.org/2000/svg">
    <title>pulse</title>
    <g id="Page-1" stroke="none" stroke-width="1" fill="none" fill-rule="evenodd">
        <g id="50-Hospital-Element-Icons" fill="#FFFFFF" fill-rule="nonzero">
            <path d="M118,45 L118,20 C118,14.486328 113.513672,10 108,10 L20,10 C14.486328,10 10,14.486328 10,20 L10,70 C10,75.513672 14.486328,80 20,80 L108,80 C113.513672,80 118,75.513672 118,70 C118,67.2382812 120.238281,65 123,65 C125.761719,65 128,67.2382812 128,70 C128,81.0283202 119.02832,90 108,90 L69,90 L69,99.9697265 L86.5,99.9697265 C89.2617188,99.9697265 91.5,102.208008 91.5,104.969726 C91.5,107.731445 89.2617188,109.969726 86.5,109.969726 L41.5,109.969726 C38.7382812,109.969726 36.5,107.731445 36.5,104.969726 C36.5,102.208008 38.7382812,99.9697265 41.5,99.9697265 L59,99.9697265 L59,90 L20,90 C8.97167975,90 0,81.0283202 0,70 L0,20 C0,8.97167975 8.97167975,0 20,0 L108,0 C119.02832,0 128,8.97167975 128,20 L128,45 C128,47.7617187 125.761719,50 123,50 C120.238281,50 118,47.7617187 118,45 Z M87.5,39 C85.517578,39 83.7236328,40.1708985 82.923828,41.984375 L78.4716798,52.091797 L66.892578,23.1435548 C66.1523438,21.2939453 64.3867188,20.060547 62.3955078,20.0029298 C60.404297,19.946289 58.569336,21.0732423 57.7236328,22.8759765 L46.553711,46.680664 L43.5859375,41.5107423 C42.694336,39.9580078 41.0410155,39 39.25,39 L25,39 C22.2382813,39 20,41.2382812 20,44 C20,46.7617188 22.2382813,49 25,49 L36.3554688,49 L42.6640625,59.9892578 C43.591797,61.6064453 45.345703,62.5664063 47.2060548,62.4960938 C49.069336,62.4189453 50.734375,61.3125 51.5263673,59.6240235 L61.8847655,37.5498048 L73.607422,66.857422 C74.3554688,68.7265625 76.1513673,69.9648438 78.1640625,69.9990235 C78.1933595,70 78.2216798,70 78.2509765,70 C80.2294923,70 82.0263673,68.8310547 82.826172,67.015625 L90.7617188,49 L103,49 C105.761719,49 108,46.7617187 108,44 C108,41.2382812 105.761719,39 103,39 L87.5,39 Z" id="pulse"></path>
        </g>
    </g>
</svg>