<?xml version="1.0" encoding="UTF-8"?>
<svg width="128px" height="128px" viewBox="0 0 128 128" version="1.1" xmlns="http://www.w3.org/2000/svg" xmlns:xlink="http://www.w3.org/1999/xlink">
    <!-- Generator: Sketch 52.5 (67469) - http://www.bohemiancoding.com/sketch -->
    <title>virus</title>
    <desc>Created with Sketch.</desc>
    <g id="Page-1" stroke="none" stroke-width="1" fill="none" fill-rule="evenodd">
        <g id="50-Hospital-Element-Icons" fill="#FFFFFF" fill-rule="nonzero">
            <path d="M128,64 C128,68.142578 124.642578,71.5 120.5,71.5 C118.279297,71.5 116.28418,70.5341797 114.911133,69 L97.125,69 C94.3632812,69 92.125,66.7617187 92.125,64 C92.125,48.4921875 79.5078125,35.875 64,35.875 C48.4921875,35.875 35.875,48.4921875 35.875,64 C35.875,79.5078125 48.4921875,92.125 64,92.125 C67.897461,92.125 71.6835938,91.3320312 75.1679688,89.8251952 C75.201172,89.8095702 75.2333985,89.7910155 75.267578,89.7763672 C75.288086,89.767578 75.3085938,89.7617187 75.3291015,89.7529297 C78.1757812,88.5 80.8164062,86.7685547 83.147461,84.5996095 C83.2509765,84.4726562 83.3623047,84.3496095 83.4804688,84.2304687 C85.3378905,82.373047 88.2910155,82.2861327 90.2548828,83.9628905 C90.267578,83.9736327 90.2802735,83.9853515 90.2929688,83.9960937 C90.3808595,84.0722655 90.46875,84.147461 90.5517578,84.2304687 L104.208985,97.8876952 C106.264649,97.774414 108.358399,98.5009765 109.928711,100.071289 C112.857422,103.000976 112.857422,107.749023 109.928711,110.677734 C106.999024,113.607422 102.250977,113.607422 99.3222655,110.677734 C97.751953,109.107422 97.024414,107.014648 97.1376953,104.958984 L86.7646485,94.5859375 C85.7666015,95.3310547 84.7373047,96.0234375 83.678711,96.663086 L86.1240235,102.341797 C87.216797,104.87793 86.046875,107.819336 83.5107422,108.911133 C82.866211,109.189453 82.194336,109.320312 81.5351562,109.320312 C79.5986327,109.320312 77.7548828,108.189453 76.9404297,106.297851 L74.5117188,100.658203 C72.7138672,101.171875 70.8720703,101.553711 69.0009765,101.797851 L69.0009765,114.911133 C70.5351562,116.28418 71.5009765,118.27832 71.5009765,120.5 C71.5009765,124.641602 68.142578,128 64.0009765,128 C59.8583985,128 56.5009765,124.641602 56.5009765,120.5 C56.5009765,118.27832 57.466797,116.28418 59.0009765,114.911133 L59.0009765,101.796875 C57.118164,101.548828 55.279297,101.164062 53.493164,100.651367 L51.060547,106.297852 C50.2460938,108.188477 48.4023438,109.320312 46.4658203,109.320312 C45.8066405,109.320312 45.1347655,109.189453 44.491211,108.911133 C41.9541015,107.819336 40.7841797,104.87793 41.876953,102.341797 L44.330078,96.647461 C43.1152345,95.9121095 41.9453125,95.1103515 40.8232422,94.2490235 L30.1132812,104.958984 C30.2265625,107.014648 29.4990235,109.108398 27.928711,110.678711 C25,113.607422 20.2509765,113.607422 17.3222655,110.678711 C14.3935547,107.749023 14.3935547,103.000976 17.3222655,100.072265 C18.892578,98.501953 20.986328,97.774414 23.0419922,97.8876952 L33.751953,87.1777345 C32.890625,86.055664 32.0888672,84.8867187 31.3535155,83.6708985 L21.1660155,88.0595702 C20.522461,88.336914 19.850586,88.46875 19.1914062,88.46875 C17.2539062,88.46875 15.4111328,87.336914 14.5966797,85.4453125 C13.5039062,82.9091797 14.6748047,79.9677735 17.2109375,78.8759765 L27.3496095,74.5078125 C26.836914,72.7216798 26.4521485,70.8828125 26.2041015,69 L13.0888672,69 C11.7158203,70.5341798 9.720703,71.5 7.5,71.5 C3.357422,71.5 0,68.142578 0,64 C0,59.8583985 3.357422,56.5 7.5,56.5 C9.720703,56.5 11.7158203,57.4658203 13.0888672,59 L26.203125,59 C26.451172,57.118164 26.8359375,55.2783203 27.3486328,53.4921875 L21.7021485,51.0595703 C19.1660155,49.9677735 17.9960938,47.0263672 19.0888672,44.4902345 C20.180664,41.9541015 23.1220703,40.783203 25.658203,41.8759765 L31.352539,44.3291015 C31.9951172,43.267578 32.6875,42.2392578 33.4267578,41.248047 L23.0410155,30.8623047 C20.9853515,30.975586 18.8916015,30.2490235 17.321289,28.678711 C14.392578,25.7490235 14.392578,21.0009765 17.321289,18.0722655 C20.2509765,15.142578 24.9990235,15.142578 27.928711,18.0722655 C29.4990235,19.642578 30.225586,21.736328 30.1123047,23.7910155 L40.399414,34.0791015 C41.6484375,33.091797 42.9609375,32.180664 44.3291015,31.3535155 L39.9404297,21.1660155 C38.8476562,18.6298828 40.0185547,15.6884765 42.5546875,14.595703 C45.0908203,13.5029297 48.0322265,14.673828 49.1240235,17.209961 L53.4921875,27.3486328 C55.2783203,26.8359375 57.1171875,26.451172 59,26.203125 L59,13.0888672 C57.4658203,11.7158203 56.5,9.720703 56.5,7.5 C56.5,3.357422 59.857422,0 64,0 C68.1416015,0 71.5,3.357422 71.5,7.5 C71.5,9.720703 70.5341797,11.7158203 69,13.0888672 L69,26.203125 C70.881836,26.451172 72.7216797,26.8359375 74.5078125,27.3486328 L76.939453,21.7021485 C78.0322265,19.1660155 80.9736328,17.9960938 83.5097655,19.0888672 C86.0458985,20.180664 87.2158203,23.1220703 86.1240235,25.658203 L83.6708985,31.352539 C84.8857422,32.0878905 86.055664,32.8896485 87.1777345,33.7509765 L97.1376953,23.7910155 C97.0234375,21.7353515 97.7509765,19.6416015 99.321289,18.071289 C102.25,15.142578 106.999023,15.142578 109.927735,18.071289 C112.856445,21.0009765 112.856445,25.7490235 109.927735,28.678711 C108.357422,30.2490235 106.263672,30.975586 104.208008,30.8623047 L94.248047,40.8222655 C95.109375,41.944336 95.9121095,43.1132812 96.6464845,44.3291015 L102.34082,41.8759765 C104.876953,40.783203 107.81836,41.9541015 108.911133,44.4902345 C110.003906,47.0263672 108.833008,49.9677735 106.296875,51.0595703 L100.651367,53.4921875 C101.164062,55.2783203 101.548828,57.1171875 101.795898,59 L114.910156,59 C116.28418,57.4658203 118.27832,56.5 120.499023,56.5 C124.642578,56.5 128,59.857422 128,64 Z M110.921875,78.9335937 L103.700195,75.5732422 C101.195312,74.408203 98.2216797,75.493164 97.0566405,77.9970702 C95.8916015,80.5009765 96.9765625,83.4746095 99.4804688,84.6396485 L106.703125,88 C107.385742,88.3183595 108.102539,88.4677735 108.80957,88.4677735 C110.69336,88.4677735 112.498047,87.397461 113.345703,85.5771485 C114.510742,83.0732422 113.425781,80.0986327 110.921875,78.9335937 Z M44.5,64.5 C44.5,68.642578 47.857422,72 52,72 C56.142578,72 59.5,68.642578 59.5,64.5 C59.5,60.357422 56.142578,57 52,57 C47.857422,57 44.5,60.357422 44.5,64.5 Z M77.1210938,53 C77.1210938,49.5478515 74.3232422,46.75 70.8710938,46.75 C67.419922,46.75 64.6210938,49.5478515 64.6210938,53 C64.6210938,56.4521485 67.419922,59.25 70.8710938,59.25 C74.3232422,59.25 77.1210938,56.4521485 77.1210938,53 Z M74.25,77 C77.0117188,77 79.25,74.7617187 79.25,72 C79.25,69.2382812 77.0117188,67 74.25,67 C71.4882812,67 69.25,69.2382812 69.25,72 C69.25,74.7617187 71.4882812,77 74.25,77 Z" id="virus"></path>
        </g>
    </g>
</svg>