<svg class="icon virus" xmlns="http://www.w3.org/2000/svg" width="128" height="128" viewBox="0 0 128 128">
  <title>virus-ai</title>
  <path d="M128,64a7.5,7.5,0,0,1-13.09,5H97.12a5,5,0,0,1-5-5,28.05,28.05,0,1,0-17,25.83l.1,0,.06,0a27.92,27.92,0,0,0,7.82-5.15,3.8,3.8,0,0,1,.33-.37A5,5,0,0,1,90.25,84l0,0,.26.23,13.66,13.66A7.5,7.5,0,1,1,97.14,105L86.76,94.59c-1,.74-2,1.43-3.08,2.07l2.44,5.68a5,5,0,1,1-9.18,4l-2.43-5.64A39.31,39.31,0,0,1,69,101.8v13.11a7.5,7.5,0,1,1-10,0V101.8a38.75,38.75,0,0,1-5.51-1.15l-2.43,5.65a5,5,0,0,1-9.18-4l2.45-5.69a41.82,41.82,0,0,1-3.51-2.4L30.11,105A7.5,7.5,0,1,1,23,97.89L33.75,87.18a38.79,38.79,0,0,1-2.4-3.51L21.17,88.06a5,5,0,1,1-4-9.18l10.14-4.37A38.75,38.75,0,0,1,26.2,69H13.09a7.5,7.5,0,1,1,0-10H26.2a38.75,38.75,0,0,1,1.15-5.51L21.7,51.06a5,5,0,1,1,4-9.18l5.69,2.45c.65-1.06,1.34-2.09,2.08-3.08L23,30.86a7.5,7.5,0,1,1,7.07-7.07L40.4,34.08a38.23,38.23,0,0,1,3.93-2.73L39.94,21.17a5,5,0,1,1,9.18-4l4.37,10.14A38.75,38.75,0,0,1,59,26.2V13.09a7.5,7.5,0,1,1,10,0V26.2a38.75,38.75,0,0,1,5.51,1.15l2.43-5.65a5,5,0,1,1,9.18,4l-2.45,5.69a38.79,38.79,0,0,1,3.51,2.4l10-10a7.5,7.5,0,1,1,7.07,7.07l-10,10a38.79,38.79,0,0,1,2.4,3.51l5.69-2.45a5,5,0,0,1,4,9.18l-5.65,2.43A38.75,38.75,0,0,1,101.8,59h13.11A7.5,7.5,0,0,1,128,64Z"/>
  <path d="M110.92,78.93l-7.22-3.36a5,5,0,0,0-4.22,9.07L106.7,88a5,5,0,1,0,4.22-9.07Z"/>
  <circle cx="52" cy="64.5" r="7.5"/>
  <circle cx="70.87" cy="53" r="6.25"/>
  <circle cx="74.25" cy="72" r="5"/>
</svg>