<svg id="Layer_1" data-name="Layer 1" xmlns="http://www.w3.org/2000/svg" width="99" height="128" viewBox="0 0 99 128">
  <defs>
    <style>
      .cls-1 {
        fill: #fff;
      }
    </style>
  </defs>
  <title>blood-drop</title>
  <path class="cls-1" d="M44.25,97V84.5H31.75a5,5,0,0,1,0-10h12.5V62a5,5,0,0,1,10,0V74.5h12.5a5,5,0,0,1,0,10H54.25V97a5,5,0,0,1-10,0Z"/>
  <path class="cls-1" d="M75.77,29.27C64.62,14.15,53.65,2.13,53.19,1.62a5,5,0,0,0-7.38,0c-.46.51-11.43,12.53-22.58,27.65C7.81,50.16,0,66.22,0,77v1.37a49.48,49.48,0,0,0,73.7,43.29A5,5,0,1,0,68.8,113,39.49,39.49,0,0,1,10,78.38V77c0-8.35,7.54-23.18,21.22-41.74,7-9.53,14.12-18,18.28-22.73,4.14,4.77,11.21,13.15,18.23,22.66C81.44,53.8,89,68.65,89,77v1.37a39.25,39.25,0,0,1-4.46,18.31,5,5,0,1,0,8.87,4.62A49.82,49.82,0,0,0,99,78.38V77C99,66.22,91.19,50.16,75.77,29.27Z"/>
</svg>
