<?xml version="1.0" encoding="UTF-8"?>
<svg width="128px" height="128px" viewBox="0 0 128 128" version="1.1" xmlns="http://www.w3.org/2000/svg" xmlns:xlink="http://www.w3.org/1999/xlink">
    <!-- Generator: Sketch 52.5 (67469) - http://www.bohemiancoding.com/sketch -->
    <title>hospital-1</title>
    <desc>Created with Sketch.</desc>
    <g id="Page-1" stroke="none" stroke-width="1" fill="none" fill-rule="evenodd">
        <g id="50-Hospital-Element-Icons" fill="#FFFFFF" fill-rule="nonzero">
            <path d="M59,89 L59,69 L38.75,69 C35.9882812,69 33.75,66.7617188 33.75,64 C33.75,61.2382812 35.9882812,59 38.75,59 L59,59 L59,38.75 C59,35.9882812 61.2382812,33.75 64,33.75 C66.7617188,33.75 69,35.9882812 69,38.75 L69,59 L89,59 C91.7617188,59 94,61.2382812 94,64 C94,66.7617188 91.7617188,69 89,69 L69,69 L69,89 C69,91.7617188 66.7617188,94 64,94 C61.2382812,94 59,91.7617188 59,89 Z M109.254883,18.7451172 C97.1669923,6.6572265 81.0947265,0 64,0 C46.9052735,0 30.8330078,6.6572265 18.7451172,18.7451172 C6.6572265,30.8330078 0,46.9052735 0,64 C0,81.0947265 6.6572265,97.1669922 18.7451172,109.254883 C30.8330078,121.342773 46.9052735,128 64,128 C75.703125,128 87.154297,124.810547 97.1152345,118.776367 C99.477539,117.345703 100.232422,114.271484 98.8017577,111.910156 C97.3701172,109.547852 94.2958985,108.792969 91.9345702,110.223633 C83.5361327,115.310547 73.8759765,118 64,118 C34.2246095,118 10,93.7753905 10,64 C10,34.2246095 34.2246095,10 64,10 C93.7753905,10 118,34.2246095 118,64 C118,74.647461 114.833984,85.0107422 108.84375,93.9716797 C107.308594,96.2666015 107.925781,99.3720702 110.22168,100.907226 C112.517578,102.441406 115.62207,101.825195 117.157227,99.529297 C124.25,88.9189453 128,76.6328125 128,64 C128,46.9052735 121.342773,30.8330077 109.254883,18.7451172 Z" id="hospital-1"></path>
        </g>
    </g>
</svg>