<svg xmlns="http://www.w3.org/2000/svg" width="25" height="16" viewBox="0 0 25 16">
  <path fill="#7F76D1" fill-rule="evenodd" d="M1,3 L24,3 C24.5522847,3 25,3.44771525 25,4 C25,4.55228475 24.5522847,5 24,5 L1,5 C0.44771525,5 6.76353751e-17,4.55228475 0,4 C-6.76353751e-17,3.44771525 0.44771525,3 1,3 Z M1,10 L12,10 C12.5522847,10 13,10.4477153 13,11 C13,11.5522847 12.5522847,12 12,12 L1,12 C0.44771525,12 6.76353751e-17,11.5522847 0,11 C-6.76353751e-17,10.4477153 0.44771525,10 1,10 Z M1,17 L24,17 C24.5522847,17 25,17.4477153 25,18 C25,18.5522847 24.5522847,19 24,19 L1,19 C0.44771525,19 6.76353751e-17,18.5522847 0,18 C-6.76353751e-17,17.4477153 0.44771525,17 1,17 Z" transform="translate(0 -3)"/>
</svg>
