<svg class="icon monitor" xmlns="http://www.w3.org/2000/svg" width="128" height="109.97" viewBox="0 0 128 109.97">
  <title>pulse-ai</title>
  <path id="monitor-frame" d="M118,45V20a10,10,0,0,0-10-10H20A10,10,0,0,0,10,20V70A10,10,0,0,0,20,80h88a10,10,0,0,0,10-10,5,5,0,0,1,10,0,20,20,0,0,1-20,20H69v10H86.5a5,5,0,0,1,0,10h-45a5,5,0,0,1,0-10H59V90H20A20,20,0,0,1,0,70V20A20,20,0,0,1,20,0h88a20,20,0,0,1,20,20V45a5,5,0,0,1-10,0Z"/>
  <path id="pulse-line" d="M87.5,39a5,5,0,0,0-4.58,3L78.47,52.09,66.89,23.14a5,5,0,0,0-9.17-.26L46.55,46.68l-3-5.17A5,5,0,0,0,39.25,39H25a5,5,0,0,0,0,10H36.36l6.3,11a5,5,0,0,0,8.87-.37L61.88,37.55,73.61,66.86A5,5,0,0,0,78.16,70h.09a5,5,0,0,0,4.58-3l7.93-18H103a5,5,0,0,0,0-10Z"/>
</svg>