<svg id="Layer_1" data-name="Layer 1" xmlns="http://www.w3.org/2000/svg" width="106.75" height="128" viewBox="0 0 106.75 128">
  <defs>
    <style>
      .cls-1 {
        fill: #fff;
      }

      .cls-2 {
        fill: #820000;
      }
    </style>
  </defs>
  <title>nurse-ai</title>
  <g id="Page-1">
    <g id="_50-Hospital-Element-Icons" data-name="50-Hospital-Element-Icons">
      <path class="cls-1" d="M106.47,111.73a5,5,0,1,0-9.77,2,3.56,3.56,0,0,1-.74,3A3.24,3.24,0,0,1,93.42,118H60.29L73.76,83.47a44.23,44.23,0,0,1,13,10.3,5,5,0,1,0,7.54-6.54A53.88,53.88,0,0,0,71.83,71.74a28.77,28.77,0,0,0,8.55-31.69L83,11.3a5,5,0,0,0-2.51-4.81C73.6,2.55,62.94,0,53.38,0S33.15,2.55,26.22,6.49a5,5,0,0,0-2.5,4.81l2.65,28.75a28.76,28.76,0,0,0,8.57,31.7,54.13,54.13,0,0,0-16,9.14,54.79,54.79,0,0,0-18.66,31A13.46,13.46,0,0,0,3,123.08,13.23,13.23,0,0,0,13.33,128H93.42a13.21,13.21,0,0,0,10.28-4.93A13.57,13.57,0,0,0,106.47,111.73Z" transform="translate(0)"/>
      <path class="cls-2" d="M53.38,108.27,42.32,79.92a43.93,43.93,0,0,1,22.12,0Z" transform="translate(0)"/>
      <path class="cls-2" d="M34.67,49.75a18.67,18.67,0,0,1,1.39-7.1,5.15,5.15,0,0,0,.35-2.36L34,13.81A53.3,53.3,0,0,1,53.38,10a53.29,53.29,0,0,1,19.4,3.81L70.34,40.29a5.15,5.15,0,0,0,.35,2.36,18.72,18.72,0,1,1-36,7.1Z" transform="translate(0)"/>
      <path class="cls-2" d="M10.75,116.77a3.41,3.41,0,0,1-.7-2.89A44.54,44.54,0,0,1,33,83.53L46.46,118H13.33A3.28,3.28,0,0,1,10.75,116.77Z" transform="translate(0)"/>
      <path class="cls-1" d="M65.6,30a5,5,0,0,1-5,5h-2.5v2.5a5,5,0,1,1-10,0V35h-2.5a5,5,0,0,1,0-10h2.5V22.5a5,5,0,1,1,10,0V25h2.5A5,5,0,0,1,65.6,30Z" transform="translate(0)"/>
    </g>
  </g>
</svg>
