<?xml version="1.0" encoding="UTF-8"?>
<svg width="107px" height="128px" viewBox="0 0 107 128" version="1.1" xmlns="http://www.w3.org/2000/svg" xmlns:xlink="http://www.w3.org/1999/xlink">
    <!-- Generator: Sketch 52.5 (67469) - http://www.bohemiancoding.com/sketch -->
    <title>nurse</title>
    <desc>Created with Sketch.</desc>
    <g id="Page-1" stroke="none" stroke-width="1" fill="none" fill-rule="evenodd">
        <g id="50-Hospital-Element-Icons" fill="#FFFFFF" fill-rule="nonzero">
            <path d="M106.466928,111.733398 C105.906714,109.030273 103.265424,107.291992 100.5686,107.854492 C97.8708016,108.416015 96.1385208,111.0625 96.6977609,113.766601 C96.9169754,114.824219 96.6500209,115.915039 95.9641235,116.759766 C95.5880492,117.222656 94.7569829,118 93.4192881,118 L60.2925854,118 L73.7620911,83.4736327 C78.6676219,86.0214845 83.1045208,89.4951172 86.8029112,93.774414 C88.6063146,95.861328 91.7571561,96.086914 93.8392055,94.279297 C95.9212549,92.470703 96.1472893,89.3134765 94.3429114,87.225586 C88.2185489,80.1396485 80.445694,74.8535155 71.8349533,71.736328 C78.082076,66.4580077 82.0591118,58.5615235 82.0591118,49.75 C82.0591118,46.413086 81.4959746,43.15625 80.3833397,40.0498047 L83.0353467,11.298828 C83.2155895,9.341797 82.2354578,7.4609375 80.530457,6.4902345 C73.5993855,2.5478515 62.940695,0 53.3751539,0 C43.810587,0 33.1518968,2.5478515 26.2208251,6.4902345 C24.5158245,7.4609375 23.5356925,9.341797 23.7159357,11.298828 L26.3679424,40.0498047 C25.2553075,43.1552735 24.6921702,46.413086 24.6921702,49.75 C24.6921702,58.571289 28.6779749,66.475586 34.936789,71.7539062 C29.1582979,73.8515625 23.7344469,76.9316405 18.9409591,80.8945312 C9.41146657,88.774414 2.78534665,99.765625 0.284354095,111.842774 C-0.541840544,115.831055 0.451931309,119.925781 3.01040656,123.077149 C5.54939634,126.206055 9.31208951,128 13.331994,128 L93.4192881,128 C97.4119128,128 101.159992,126.203125 103.702878,123.071289 C106.290582,119.882813 107.297994,115.75 106.466928,111.733399 Z M53.3751539,108.271484 L42.316032,79.9248048 C45.8702278,78.9951173 49.5783609,78.5 53.3751539,78.5 C57.148564,78.5 60.8635172,78.9833985 64.4420701,79.9072265 L53.3751539,108.271484 Z M34.6688602,49.75 C34.6688602,47.2890625 35.1365176,44.899414 36.0572179,42.6464845 C36.3621694,41.9003905 36.4829811,41.091797 36.4089351,40.2890625 L33.9664,13.8066405 C39.3805079,11.5097655 46.8815369,10 53.3751539,10 C59.8697451,10 67.3697999,11.5097655 72.7839079,13.8076172 L70.3413727,40.290039 C70.2673267,41.091797 70.3881385,41.9013673 70.69309,42.6464845 C71.6147645,44.899414 72.0814476,47.2890625 72.0814476,49.75 C72.0814476,60.0888672 63.6899212,68.5 53.3751539,68.5 C43.0603866,68.5 34.6688602,60.0888672 34.6688602,49.75 Z M10.7481871,116.766601 C10.3633441,116.291992 9.76123535,115.285156 10.052547,113.875976 C12.8185451,100.521484 21.5169717,89.5546875 33.0106251,83.5302735 L46.4586966,118 L13.331994,118 C11.9553277,118 11.122313,117.226562 10.7481871,116.766601 Z M65.5965991,30 C65.5965991,32.7617188 63.3635353,35 60.6082542,35 L58.1140817,35 L58.1140817,37.5 C58.1140817,40.2617188 55.8810178,42.5 53.1257367,42.5 C50.3704555,42.5 48.1373917,40.2617188 48.1373917,37.5 L48.1373917,35 L45.6432192,35 C42.887938,35 40.6548742,32.7617188 40.6548742,30 C40.6548742,27.2382812 42.887938,25 45.6432192,25 L48.1373917,25 L48.1373917,22.5 C48.1373917,19.7382812 50.3704555,17.5 53.1257367,17.5 C55.8810178,17.5 58.1140817,19.7382812 58.1140817,22.5 L58.1140817,25 L60.6082542,25 C63.3635353,25 65.5965991,27.2382812 65.5965991,30 Z" id="nurse"></path>
        </g>
    </g>
</svg>