<svg id="pulse" xmlns="http://www.w3.org/2000/svg" viewBox="0 0 128 109.97">
  <defs>
    <style>
      .cls-1 {
        fill: #fff;
      }
    </style>
  </defs>
  <title>pulse-class_based</title>
  <g id="monitor">
    <path class="cls-1" d="M118.29,45V20a10,10,0,0,0-10-10h-88a10,10,0,0,0-10,10V70a10,10,0,0,0,10,10h88a10,10,0,0,0,10-10,5,5,0,1,1,10,0,20,20,0,0,1-20,20h-39v10h17.5a5,5,0,0,1,0,10h-45a5,5,0,1,1,0-10h17.5V90h-39a20,20,0,0,1-20-20V20a20,20,0,0,1,20-20h88a20,20,0,0,1,20,20V45a5,5,0,1,1-10,0Z" transform="translate(-0.29)"/>
  </g>
  <path id="pulse_line" class="cls-1" d="M20,44a5,5,0,0,0,5,5H36.36l6.3,11a5,5,0,0,0,8.87-.37L61.88,37.55,73.61,66.86A5,5,0,0,0,78.16,70h.09a5,5,0,0,0,4.58-3l7.93-18H103a5,5,0,0,0,0-10H87.5a5,5,0,0,0-4.58,3L78.47,52.09,66.89,23.14a5,5,0,0,0-9.17-.26L46.55,46.68l-3-5.17A5,5,0,0,0,39.25,39H25a5,5,0,0,0-5,5" transform="translate(-0.29)"/>
</svg>
