<?xml version="1.0" encoding="UTF-8"?>
<svg width="128px" height="128px" viewBox="0 0 128 128" version="1.1" xmlns="http://www.w3.org/2000/svg" xmlns:xlink="http://www.w3.org/1999/xlink">
    <!-- Generator: Sketch 52.4 (67378) - http://www.bohemiancoding.com/sketch -->
    <title>stethoscope</title>
    <desc>Created with Sketch.</desc>
    <g id="Page-1" stroke="none" stroke-width="1" fill="none" fill-rule="evenodd">
        <g id="50-Hospital-Element-Icons" transform="translate(-488.000000, -2279.000000)" fill="#FFFFFF" fill-rule="nonzero">
            <path d="M571,2372.5 C568.238281,2372.5 566,2374.73828 566,2377.5 C566,2388.25195 557.25293,2397 546.5,2397 C535.74707,2397 527,2388.25195 527,2377.5 L527,2363.12988 L544.77539,2337.33691 C544.884765,2337.17773 544.982422,2337.01367 545.071289,2336.84668 C545.410156,2336.53027 545.74414,2336.20801 546.070312,2335.87598 C552.473633,2329.36621 556,2320.26562 556,2310.25 C556,2310.16406 555.998047,2310.07812 555.993164,2309.99316 L556,2290.625 C556,2284.21484 550.785156,2279 544.375,2279 L535,2279 C532.238281,2279 530,2281.23828 530,2284 L530,2289 C530,2291.76172 532.238281,2294 535,2294 C537.761719,2294 540,2291.76172 540,2289 L544.375,2289 C545.271485,2289 546,2289.72852 546,2290.62305 L545.993164,2310.24805 C545.993164,2310.3291 545.995117,2310.40918 545.999024,2310.48828 C545.891601,2325.1416 535.832031,2335.75 522,2335.75 C508.09375,2335.75 498,2325.02539 498,2310.25 C498,2310.09473 497.990234,2309.94043 497.976562,2309.78809 C497.991211,2309.63574 498,2309.48242 498,2309.32617 L498,2290.625 C498,2289.72852 498.728516,2289 499.625,2289 L503.755859,2289 C503.886719,2291.64551 506.072266,2293.75 508.75,2293.75 C511.511719,2293.75 513.75,2291.51172 513.75,2288.75 L513.75,2284 C513.75,2281.23828 511.511719,2279 508.75,2279 L499.625,2279 C493.214844,2279 488,2284.21484 488,2290.625 L488,2309.32617 C488,2309.48242 488.009766,2309.63574 488.023438,2309.78809 C488.009766,2309.94043 488,2310.09473 488,2310.25 C488,2320.26562 491.526367,2329.36621 497.929688,2335.87598 C498.129883,2336.0791 498.332031,2336.2793 498.536133,2336.47656 C498.664062,2336.77344 498.821289,2337.06152 499.011719,2337.33691 L517,2363.43945 L517,2377.5 C517,2393.7666 530.233399,2407 546.5,2407 C562.766601,2407 576,2393.7666 576,2377.5 C576,2374.73828 573.761719,2372.5 571,2372.5 Z M522,2345.75 C523.72168,2345.75 525.418945,2345.62793 527.081055,2345.38965 L521.893555,2352.91699 L516.680664,2345.35352 C518.418945,2345.61523 520.196289,2345.75 522,2345.75 Z M606,2332.61035 L606,2299 C606,2287.97168 597.02832,2279 586,2279 C574.97168,2279 566,2287.97168 566,2299 L566,2352.5 C566,2355.26172 568.238281,2357.5 571,2357.5 C573.761719,2357.5 576,2355.26172 576,2352.5 L576,2299 C576,2293.48633 580.486328,2289 586,2289 C591.513672,2289 596,2293.48633 596,2299 L596,2332.61035 C590.180664,2334.67383 586,2340.23145 586,2346.75 C586,2355.02148 592.728515,2361.75 601,2361.75 C609.271485,2361.75 616,2355.02148 616,2346.75 C616,2340.23145 611.819336,2334.67383 606,2332.61035 Z M601,2351.75 C598.243164,2351.75 596,2349.50684 596,2346.75 C596,2343.99316 598.243164,2341.75 601,2341.75 C603.756836,2341.75 606,2343.99316 606,2346.75 C606,2349.50684 603.756836,2351.75 601,2351.75 Z" id="stethoscope"></path>
        </g>
    </g>
</svg>