<?xml version="1.0" encoding="UTF-8"?>
<svg width="128px" height="128px" viewBox="0 0 128 128" version="1.1" xmlns="http://www.w3.org/2000/svg" xmlns:xlink="http://www.w3.org/1999/xlink">
    <!-- Generator: Sketch 52.4 (67378) - http://www.bohemiancoding.com/sketch -->
    <title>lungs</title>
    <desc>Created with Sketch.</desc>
    <g id="Page-1" stroke="none" stroke-width="1" fill="none" fill-rule="evenodd">
        <g id="50-Hospital-Element-Icons" transform="translate(-188.000000, -1384.000000)" fill="#FFFFFF" fill-rule="nonzero">
            <path d="M311.02729,1486.37695 C308.26998,1486.2207 305.922027,1488.33691 305.769981,1491.09375 C305.606238,1494.08008 305.193957,1497.56738 304.829435,1500.64355 C304.774854,1501.10352 304.721248,1501.55664 304.669591,1502 C299.252437,1501.97168 291.292398,1501.34082 284.734893,1499.64355 C277.409357,1497.74805 275.823587,1495.54883 275.823587,1495.10547 L275.823587,1426.41699 C275.823587,1426.1123 275.942495,1425.8252 276.157895,1425.60938 C276.577973,1425.18945 276.929824,1425.19336 277.329435,1425.32812 C280.769006,1426.49316 286.319688,1430.25488 291.579922,1437.32129 C295.82846,1443.0293 301.461014,1453.04688 304.162768,1468.35352 C304.643275,1471.07227 307.232943,1472.88574 309.946394,1472.40625 C312.659844,1471.9248 314.47076,1469.33105 313.990253,1466.61133 C311.581871,1452.96875 306.59844,1440.77344 299.579922,1431.34375 C293.863548,1423.66504 286.918129,1418.01953 280.522417,1415.85547 C276.431774,1414.46973 272.163743,1415.47266 269.103314,1418.53613 C267.000975,1420.6416 265.84308,1423.44043 265.84308,1426.41797 L265.84308,1446.21875 C261.155945,1443.4248 258.234893,1440.55957 256.875244,1437.44824 C256.874269,1437.35938 256.867446,1437.27051 256.860624,1437.18262 L256.860624,1418.99805 C256.860624,1416.23633 254.626706,1413.99805 251.871345,1413.99805 C249.11501,1413.99805 246.881092,1416.23633 246.881092,1418.99805 L246.881092,1435.93555 C246.750487,1436.3252 246.664717,1436.72852 246.632554,1437.13867 C244.908382,1440.76953 242.022417,1443.80273 237.89961,1446.30469 L237.89961,1426.16699 C237.89961,1423.19043 236.740741,1420.39062 234.638402,1418.28516 C231.578947,1415.22266 227.309942,1414.21973 223.219298,1415.60449 C215.238791,1418.30566 206.703704,1426.25586 200.387914,1436.87012 C194.736842,1446.36914 188,1462.86133 188,1487.48633 C188,1491.22266 188.410331,1496.66016 189.218323,1503.64746 C189.769006,1508.40527 193.842105,1511.99219 198.692983,1511.99219 C201.619883,1511.99219 211.917154,1511.7998 221.504873,1509.31738 C225.895711,1508.18066 229.436647,1506.71484 232.028265,1504.95898 C236.881092,1501.67285 237.89961,1497.78223 237.89961,1495.09766 L237.89961,1457.55664 C243.778752,1454.92773 248.363548,1451.62891 251.723197,1447.5957 C255.697856,1452.08496 261.103314,1455.25488 265.84308,1457.55078 L265.84308,1495.10547 C265.84308,1497.79004 266.861598,1501.68066 271.714425,1504.9668 C274.306043,1506.72168 277.846979,1508.18848 282.237817,1509.3252 C291.825536,1511.80762 302.122807,1512 305.049708,1512 C309.900585,1512 313.973684,1508.41309 314.524367,1503.65625 C314.592593,1503.0625 314.665692,1502.44922 314.739766,1501.82129 C315.120858,1498.59766 315.553606,1494.94434 315.734893,1491.64355 C315.88694,1488.88672 313.778752,1486.52832 311.02729,1486.37695 Z M227.920078,1495.09766 C227.920078,1495.54102 226.334308,1497.74023 219.008772,1499.63574 C212.451267,1501.33301 204.491228,1501.96387 199.074074,1501.99219 C198.3577,1495.71387 197.979532,1490.70605 197.979532,1487.48633 C197.979532,1465.1377 203.951267,1450.41016 208.961014,1441.99121 C215.011696,1431.81934 222.14425,1426.52344 226.413255,1425.07812 C226.559454,1425.0293 226.699805,1424.99707 226.839181,1424.99707 C227.079922,1424.99707 227.318713,1425.09277 227.584795,1425.35938 C227.800195,1425.5752 227.920078,1425.8623 227.920078,1426.16699 L227.920078,1495.09766 Z M246.881092,1403.74902 C246.881092,1400.9873 249.11501,1398.74902 251.871345,1398.74902 C254.62768,1398.74902 256.861598,1400.9873 256.861598,1403.74902 C256.861598,1406.50977 254.62768,1408.74805 251.871345,1408.74805 C249.115984,1408.74805 246.881092,1406.50977 246.881092,1403.74902 Z M246.881092,1389 C246.881092,1386.23828 249.11501,1384 251.871345,1384 C254.62768,1384 256.861598,1386.23828 256.861598,1389 C256.861598,1391.76074 254.62768,1393.99902 251.871345,1393.99902 C249.115984,1393.99902 246.881092,1391.76074 246.881092,1389 Z" id="lungs"></path>
        </g>
    </g>
</svg>