<?xml version="1.0" encoding="UTF-8"?>
<svg width="83px" height="128px" viewBox="0 0 83 128" version="1.1" xmlns="http://www.w3.org/2000/svg" xmlns:xlink="http://www.w3.org/1999/xlink">
    <!-- Generator: Sketch 52.5 (67469) - http://www.bohemiancoding.com/sketch -->
    <title>medicines</title>
    <desc>Created with Sketch.</desc>
    <g id="Page-1" stroke="none" stroke-width="1" fill="none" fill-rule="evenodd">
        <g id="50-Hospital-Element-Icons" transform="translate(-1111.000000, -1384.000000)" fill="#fedd43" fill-rule="nonzero">
            <path d="M1194,1409 L1194,1389 C1194,1386.23828 1191.76844,1384 1189.01502,1384 L1116.23423,1384 C1113.48081,1384 1111.24925,1386.23828 1111.24925,1389 L1111.24925,1409 C1111.24925,1411.68457 1113.36008,1413.86816 1116.0064,1413.98828 C1112.8645,1418.17188 1111,1423.37109 1111,1429 L1111,1492 C1111,1503.02832 1119.94474,1512 1130.93994,1512 L1173.81081,1512 C1184.80601,1512 1193.75075,1503.02832 1193.75075,1492 L1193.75075,1478.25 C1193.75075,1475.48828 1191.51919,1473.25 1188.76577,1473.25 L1165.08709,1473.25 L1165.08709,1443.25 L1183.78078,1443.25 L1183.78078,1453.25 C1183.78078,1456.01172 1186.01234,1458.25 1188.76577,1458.25 C1191.51919,1458.25 1193.75075,1456.01172 1193.75075,1453.25 L1193.75075,1429 C1193.75075,1423.37695 1191.88917,1418.18164 1188.75311,1414 L1189.01502,1414 C1191.76844,1414 1194,1411.76172 1194,1409 Z M1138.91592,1404 L1138.91592,1394 L1147.39039,1394 L1147.39039,1404 L1138.91592,1404 Z M1157.36036,1394 L1165.83483,1394 L1165.83483,1404 L1157.36036,1404 L1157.36036,1394 Z M1184.03003,1404 L1175.8048,1404 L1175.8048,1394 L1184.03003,1394 L1184.03003,1404 Z M1121.21922,1394 L1128.94595,1394 L1128.94595,1404 L1121.21922,1404 L1121.21922,1394 Z M1183.78078,1429 L1183.78078,1433.25 L1160.1021,1433.25 C1157.34868,1433.25 1155.11712,1435.48828 1155.11712,1438.25 L1155.11712,1478.25 C1155.11712,1481.01172 1157.34868,1483.25 1160.1021,1483.25 L1183.78078,1483.25 L1183.78078,1492 C1183.78078,1497.51367 1179.30793,1502 1173.81081,1502 L1130.93994,1502 C1125.44283,1502 1120.96997,1497.51367 1120.96997,1492 L1120.96997,1429 C1120.96997,1420.72852 1127.67828,1414 1135.92492,1414 L1168.82583,1414 C1177.07247,1414 1183.78078,1420.72852 1183.78078,1429 Z M1135.17718,1491.75 C1135.17718,1494.51172 1132.94562,1496.75 1130.19219,1496.75 C1127.43877,1496.75 1125.20721,1494.51172 1125.20721,1491.75 C1125.20721,1488.98828 1127.43877,1486.75 1130.19219,1486.75 C1132.94562,1486.75 1135.17718,1488.98828 1135.17718,1491.75 Z M1150.13213,1491.75 C1150.13213,1494.51172 1147.90057,1496.75 1145.14715,1496.75 C1142.39372,1496.75 1140.16216,1494.51172 1140.16216,1491.75 C1140.16216,1488.98828 1142.39372,1486.75 1145.14715,1486.75 C1147.90057,1486.75 1150.13213,1488.98828 1150.13213,1491.75 Z M1154.86787,1491.75 C1154.86787,1488.98828 1157.09943,1486.75 1159.85285,1486.75 C1162.60628,1486.75 1164.83784,1488.98828 1164.83784,1491.75 C1164.83784,1494.51172 1162.60628,1496.75 1159.85285,1496.75 C1157.09943,1496.75 1154.86787,1494.51172 1154.86787,1491.75 Z M1137.42042,1481.75 C1134.667,1481.75 1132.43544,1479.51172 1132.43544,1476.75 C1132.43544,1473.98828 1134.667,1471.75 1137.42042,1471.75 C1140.17385,1471.75 1142.40541,1473.98828 1142.40541,1476.75 C1142.40541,1479.51172 1140.17385,1481.75 1137.42042,1481.75 Z M1137.66967,1442 C1140.42309,1442 1142.65465,1444.23828 1142.65465,1447 C1142.65465,1449.76172 1140.42309,1452 1137.66967,1452 C1134.91624,1452 1132.68468,1449.76172 1132.68468,1447 C1132.68468,1444.23828 1134.91624,1442 1137.66967,1442 Z M1144.8979,1456.75 C1147.65132,1456.75 1149.88288,1458.98828 1149.88288,1461.75 C1149.88288,1464.51172 1147.65132,1466.75 1144.8979,1466.75 C1142.14447,1466.75 1139.91291,1464.51172 1139.91291,1461.75 C1139.91291,1458.98828 1142.14447,1456.75 1144.8979,1456.75 Z M1124.95796,1462 C1124.95796,1459.23828 1127.18952,1457 1129.94294,1457 C1132.69637,1457 1134.92793,1459.23828 1134.92793,1462 C1134.92793,1464.76172 1132.69637,1467 1129.94294,1467 C1127.18952,1467 1124.95796,1464.76172 1124.95796,1462 Z M1169.82282,1491.75 C1169.82282,1488.98828 1172.05438,1486.75 1174.80781,1486.75 C1177.56123,1486.75 1179.79279,1488.98828 1179.79279,1491.75 C1179.79279,1494.51172 1177.56123,1496.75 1174.80781,1496.75 C1172.05438,1496.75 1169.82282,1494.51172 1169.82282,1491.75 Z" id="medicines"></path>
        </g>
    </g>
</svg>