<svg width="83px" height="128px" viewBox="0 0 83 128" version="1.1" xmlns="http://www.w3.org/2000/svg">
    <title>medicines</title>
    <g id="Page-1" stroke="none" stroke-width="1" fill="none" fill-rule="evenodd">
        <g id="50-Hospital-Element-Icons" fill="#FFFFFF" fill-rule="nonzero">
            <path d="M83,25 L83,5 C83,2.23828125 80.7684403,0 78.015015,0 L5.23423423,0 C2.48080893,0 0.249249249,2.23828125 0.249249249,5 L0.249249249,25 C0.249249249,27.6845703 2.36007883,29.868164 5.00640497,29.9882812 C1.86450128,34.171875 0,39.3710938 0,45 L0,108 C0,119.02832 8.94473777,128 19.9399399,128 L62.8108108,128 C73.806013,128 82.7507508,119.02832 82.7507508,108 L82.7507508,94.25 C82.7507508,91.4882812 80.5191911,89.25 77.7657658,89.25 L54.0870871,89.25 L54.0870871,59.25 L72.7807808,59.25 L72.7807808,69.25 C72.7807808,72.0117188 75.0123405,74.25 77.7657658,74.25 C80.5191911,74.25 82.7507508,72.0117188 82.7507508,69.25 L82.7507508,45 C82.7507508,39.376953 80.8891704,34.1816405 77.7531086,30 L78.015015,30 C80.7684403,30 83,27.7617188 83,25 Z M27.9159159,20 L27.9159159,10 L36.3903904,10 L36.3903904,20 L27.9159159,20 Z M46.3603604,10 L54.8348348,10 L54.8348348,20 L46.3603604,20 L46.3603604,10 Z M73.03003,20 L64.8048048,20 L64.8048048,10 L73.03003,10 L73.03003,20 Z M10.2192192,10 L17.9459459,10 L17.9459459,20 L10.2192192,20 L10.2192192,10 Z M72.7807808,45 L72.7807808,49.25 L49.1021021,49.25 C46.3486768,49.25 44.1171171,51.4882812 44.1171171,54.25 L44.1171171,94.25 C44.1171171,97.0117188 46.3486768,99.25 49.1021021,99.25 L72.7807808,99.25 L72.7807808,108 C72.7807808,113.513672 68.3079252,118 62.8108108,118 L19.9399399,118 C14.4428255,118 9.96996997,113.513672 9.96996997,108 L9.96996997,45 C9.96996997,36.7285155 16.6782797,30 24.9249249,30 L57.8258258,30 C66.072471,30 72.7807808,36.7285155 72.7807808,45 Z M24.1771772,107.75 C24.1771772,110.511719 21.9456175,112.75 19.1921922,112.75 C16.4387669,112.75 14.2072072,110.511719 14.2072072,107.75 C14.2072072,104.988281 16.4387669,102.75 19.1921922,102.75 C21.9456175,102.75 24.1771772,104.988281 24.1771772,107.75 Z M39.1321321,107.75 C39.1321321,110.511719 36.9005724,112.75 34.1471471,112.75 C31.3937218,112.75 29.1621622,110.511719 29.1621622,107.75 C29.1621622,104.988281 31.3937218,102.75 34.1471471,102.75 C36.9005724,102.75 39.1321321,104.988281 39.1321321,107.75 Z M43.8678679,107.75 C43.8678679,104.988281 46.0994276,102.75 48.8528529,102.75 C51.6062782,102.75 53.8378378,104.988281 53.8378378,107.75 C53.8378378,110.511719 51.6062782,112.75 48.8528529,112.75 C46.0994276,112.75 43.8678679,110.511719 43.8678679,107.75 Z M26.4204204,97.75 C23.6669951,97.75 21.4354354,95.5117188 21.4354354,92.75 C21.4354354,89.9882812 23.6669951,87.75 26.4204204,87.75 C29.1738457,87.75 31.4054054,89.9882812 31.4054054,92.75 C31.4054054,95.5117188 29.1738457,97.75 26.4204204,97.75 Z M26.6696697,58 C29.423095,58 31.6546547,60.2382812 31.6546547,63 C31.6546547,65.7617188 29.423095,68 26.6696697,68 C23.9162444,68 21.6846847,65.7617188 21.6846847,63 C21.6846847,60.2382812 23.9162444,58 26.6696697,58 Z M33.8978979,72.75 C36.6513232,72.75 38.8828829,74.9882812 38.8828829,77.75 C38.8828829,80.5117188 36.6513232,82.75 33.8978979,82.75 C31.1444726,82.75 28.9129129,80.5117188 28.9129129,77.75 C28.9129129,74.9882812 31.1444726,72.75 33.8978979,72.75 Z M13.957958,78 C13.957958,75.2382812 16.1895176,73 18.9429429,73 C21.6963682,73 23.9279279,75.2382812 23.9279279,78 C23.9279279,80.7617188 21.6963682,83 18.9429429,83 C16.1895176,83 13.957958,80.7617188 13.957958,78 Z M58.8228228,107.75 C58.8228228,104.988281 61.0543825,102.75 63.8078078,102.75 C66.5612331,102.75 68.7927928,104.988281 68.7927928,107.75 C68.7927928,110.511719 66.5612331,112.75 63.8078078,112.75 C61.0543825,112.75 58.8228228,110.511719 58.8228228,107.75 Z" id="medicines"></path>
        </g>
    </g>
</svg>