<svg id="Layer_1" width="85" height="130" viewBox="0 0 85 130">
  <title>pills-stroke-red-inline</title>
  <g id="Page-1">
    <g id="_50-Hospital-Element-Icons" data-name="50-Hospital-Element-Icons">
      <path style="fill: #fff;stroke: #fb272e;stroke-width: 2px" id="medicines" d="M84,26V6a5,5,0,0,0-5-5H6.23a5,5,0,0,0-5,5V26A5,5,0,0,0,6,31,24.85,24.85,0,0,0,1,46v63a20,20,0,0,0,19.94,20H63.81a20,20,0,0,0,19.94-20V95.25a5,5,0,0,0-5-5H55.09v-30H73.78v10a5,5,0,1,0,10,0V46a24.9,24.9,0,0,0-5-15H79A5,5,0,0,0,84,26ZM28.92,21V11h8.47V21ZM47.36,11h8.47V21H47.36ZM74,21H65.8V11H74ZM11.22,11H19V21H11.22ZM73.78,46v4.25H50.1a5,5,0,0,0-5,5v40a5,5,0,0,0,5,5H73.78V109a10,10,0,0,1-10,10H20.94a10,10,0,0,1-10-10V46a15,15,0,0,1,15-15H58.83A15,15,0,0,1,73.78,46Zm-48.6,62.75a5,5,0,1,1-5-5A5,5,0,0,1,25.18,108.75Zm15,0a5,5,0,1,1-5-5A5,5,0,0,1,40.13,108.75Zm4.74,0a5,5,0,1,1,5,5A5,5,0,0,1,44.87,108.75Zm-17.45-10a5,5,0,1,1,5-5A5,5,0,0,1,27.42,98.75ZM27.67,59a5,5,0,1,1-5,5A5,5,0,0,1,27.67,59ZM34.9,73.75a5,5,0,1,1-5,5A5,5,0,0,1,34.9,73.75ZM15,79a5,5,0,1,1,5,5A5,5,0,0,1,15,79Zm44.86,29.75a5,5,0,1,1,5,5A5,5,0,0,1,59.82,108.75Z" />
    </g>
  </g>
</svg>
